HIERARCHY
ROOT Hips
{
	OFFSET 0.000000 0.000000 0.000000
	CHANNELS 6 Xposition Yposition Zposition Xrotation Yrotation Zrotation
	JOINT LeftUpLeg_virtual
	{
		OFFSET 0.000000 0.000000 0.000000
		CHANNELS 3 Xrotation Yrotation Zrotation
		JOINT LeftUpLeg
		{
			OFFSET 13.026900 -6.336304 -1.092800
			CHANNELS 3 Xrotation Yrotation Zrotation
			JOINT LeftLeg
			{
				OFFSET 0.524474 -46.096886 9.782700
				CHANNELS 3 Xrotation Yrotation Zrotation
				JOINT LeftFoot
				{
					OFFSET -0.524474 -53.427422 -12.948200
					CHANNELS 3 Xrotation Yrotation Zrotation
					JOINT LeftToeBase
					{
						OFFSET 0.192200 -14.009700 16.364100
						CHANNELS 3 Xrotation Yrotation Zrotation
						JOINT LeftToe_End
						{
							OFFSET -1.784700 -0.561700 9.474800
							CHANNELS 3 Xrotation Yrotation Zrotation
							End Site
							{
								OFFSET 0 0 0
							}
						}
					}
				}
			}
		}
	}
	JOINT RightUpLeg_virtual
	{
		OFFSET 0.000000 0.000000 0.000000
		CHANNELS 3 Xrotation Yrotation Zrotation
		JOINT RightUpLeg
		{
			OFFSET -12.883000 -6.336304 -1.092800
			CHANNELS 3 Xrotation Yrotation Zrotation
			JOINT RightLeg
			{
				OFFSET -0.524587 -46.096825 9.782800
				CHANNELS 3 Xrotation Yrotation Zrotation
				JOINT RightFoot
				{
					OFFSET 0.524587 -53.427383 -12.948300
					CHANNELS 3 Xrotation Yrotation Zrotation
					JOINT RightToeBase
					{
						OFFSET -0.192200 -14.009700 16.364100
						CHANNELS 3 Xrotation Yrotation Zrotation
						JOINT RightToe_End
						{
							OFFSET 1.784700 -0.561700 9.474800
							CHANNELS 3 Xrotation Yrotation Zrotation
							End Site
							{
								OFFSET 0 0 0
							}
						}
					}
				}
			}
		}
	}
	JOINT Spine_virtual
	{
		OFFSET 0.000000 0.000000 0.000000
		CHANNELS 3 Xrotation Yrotation Zrotation
		JOINT Spine
		{
			OFFSET 0.072000 7.257294 -0.789700
			CHANNELS 3 Xrotation Yrotation Zrotation
			JOINT Spine1
			{
				OFFSET 0.000000 12.508769 -0.658067
				CHANNELS 3 Xrotation Yrotation Zrotation
				JOINT Spine1_split
				{
					OFFSET 0.000000 12.508769 -0.658067
					CHANNELS 3 Xrotation Yrotation Zrotation
					JOINT Spine2
					{
						OFFSET 0.000000 12.508769 -0.658067
						CHANNELS 3 Xrotation Yrotation Zrotation
						JOINT Neck_virtual
						{
							OFFSET 0.000000 0.000000 0.000000
							CHANNELS 3 Xrotation Yrotation Zrotation
							JOINT Neck
							{
								OFFSET 0.000000 14.033295 7.520400
								CHANNELS 3 Xrotation Yrotation Zrotation
								JOINT Head
								{
									OFFSET 0.000000 8.198502 5.703100
									CHANNELS 3 Xrotation Yrotation Zrotation
									JOINT HeadTop_End
									{
										OFFSET 0.000000 17.760803 13.332701
										CHANNELS 3 Xrotation Yrotation Zrotation
										End Site
										{
											OFFSET 0 0 0
										}
									}
								}
							}
						}
						JOINT LeftShoulder_virtual
						{
							OFFSET 0.000000 0.000000 0.000000
							CHANNELS 3 Xrotation Yrotation Zrotation
							JOINT LeftShoulder
							{
								OFFSET 6.292450 5.785301 -0.669000
								CHANNELS 3 Xrotation Yrotation Zrotation
								JOINT LeftShoulder_split
								{
									OFFSET 6.292450 5.785301 -0.669000
									CHANNELS 3 Xrotation Yrotation Zrotation
									JOINT LeftArm
									{
										OFFSET 13.907140 -6.093903 1.965100
										CHANNELS 3 Xrotation Yrotation Zrotation
										JOINT LeftForeArm
										{
											OFFSET 34.140198 0.000000 0.000000
											CHANNELS 3 Xrotation Yrotation Zrotation
											JOINT LeftHand
											{
												OFFSET 40.960209 0.000000 0.000000
												CHANNELS 3 Xrotation Yrotation Zrotation
												End Site
												{
													OFFSET 0 0 0
												}
											}
										}
									}
								}
							}
						}
						JOINT RightShoulder_virtual
						{
							OFFSET 0.000000 0.000000 0.000000
							CHANNELS 3 Xrotation Yrotation Zrotation
							JOINT RightShoulder
							{
								OFFSET -6.292450 5.785301 -0.669000
								CHANNELS 3 Xrotation Yrotation Zrotation
								JOINT RightShoulder_split
								{
									OFFSET -6.292450 5.785301 -0.669000
									CHANNELS 3 Xrotation Yrotation Zrotation
									JOINT RightArm
									{
										OFFSET -13.907140 -6.093903 1.965100
										CHANNELS 3 Xrotation Yrotation Zrotation
										JOINT RightForeArm
										{
											OFFSET -34.140198 0.000000 0.000000
											CHANNELS 3 Xrotation Yrotation Zrotation
											JOINT RightHand
											{
												OFFSET -40.960209 0.000000 0.000000
												CHANNELS 3 Xrotation Yrotation Zrotation
												End Site
												{
													OFFSET 0 0 0
												}
											}
										}
									}
								}
							}
						}
					}
				}
			}
		}
	}
}
MOTION
Frames: 7
Frame Time: 0.03333333
-0.841059 119.710831 0.465725 0.000000 0.000000 0.000000 -6.112937 -16.917832 -1.598363 1.608979 22.535806 4.312951 7.044669 5.631702 0.980129 -8.323191 -0.868535 -1.504224 1.644406 0.437980 -0.866899 0.000000 0.000000 0.000000 -6.168535 -14.527548 -1.484030 -6.119603 -7.995523 -10.165065 6.872317 -11.262474 -0.835424 7.264932 -2.940144 5.750380 -4.944558 -0.606973 -0.576073 0.000000 0.000000 0.000000 -6.034998 -16.904242 -2.092864 10.298783 2.392744 0.722240 -4.474102 1.404262 -0.970273 0.858251 0.437259 0.146141 0.000000 0.000000 0.000000 -5.729146 3.788285 -1.329893 5.301818 3.708391 1.299436 1.840946 -6.390410 4.769402 0.000000 0.000000 0.000000 -6.121491 3.849218 -1.592993 2.360628 -13.094152 -2.698797 -2.005899 -2.339825 -0.043842 15.331760 6.031558 -74.982561 3.701554 -10.084082 0.918019 0.000000 0.000000 0.000000 -4.996195 3.987134 -1.462297 1.131026 2.969550 4.765928 -3.081305 -1.041346 -1.369308 0.528810 7.611759 79.987253 2.339346 20.223015 1.697263 0.000000 0.000000 0.000000 
-0.773724 119.569572 0.469902 0.000000 0.000000 0.000000 -6.144877 -17.169448 -1.616887 1.230786 22.498098 4.323881 7.649154 5.647251 1.076980 -8.420642 -0.909497 -1.471420 1.687884 0.426539 -0.890908 0.000000 0.000000 0.000000 -6.115970 -14.573889 -1.508196 -6.241484 -8.037033 -9.993930 6.671710 -11.336112 -0.976351 7.427680 -3.075600 5.873302 -5.078278 -0.566694 -0.582012 0.000000 0.000000 0.000000 -6.128585 -17.001714 -2.155532 10.227721 2.355612 0.747968 -4.531584 1.393984 -1.020736 0.752729 0.518380 0.115796 0.000000 0.000000 0.000000 -5.855780 3.776921 -1.376335 5.373493 3.678662 1.347193 1.851840 -6.387464 4.747179 0.000000 0.000000 0.000000 -6.146907 3.845573 -1.648522 2.331674 -12.991698 -2.850904 -2.022410 -2.230159 -0.057343 15.303437 6.411060 -74.735336 3.514184 -9.980291 0.731126 0.000000 0.000000 0.000000 -4.995766 3.989614 -1.524447 1.113584 3.060698 4.891408 -2.942537 -1.011012 -1.347444 0.576249 7.665624 80.118891 2.420822 20.756969 1.708321 0.000000 0.000000 0.000000 
-0.702822 119.280983 0.396770 0.000000 0.000000 0.000000 -6.028977 -17.296307 -1.700322 0.364249 22.251482 4.624789 8.888529 5.454918 1.180337 -8.561392 -1.194501 -1.398742 1.652197 0.405904 -0.923231 0.000000 0.000000 0.000000 -6.083327 -14.446846 -1.635375 -6.566658 -8.431670 -9.811610 6.938008 -11.248343 -1.091679 7.140017 -3.085839 6.221607 -5.095185 -0.481554 -0.540926 0.000000 0.000000 0.000000 -6.058196 -17.103955 -2.268857 10.097986 2.298802 0.858867 -4.591448 1.375540 -1.096160 0.742300 0.528309 0.127053 0.000000 0.000000 0.000000 -5.979512 3.756549 -1.452662 5.421769 3.646771 1.286397 1.783693 -6.492575 4.919424 0.000000 0.000000 0.000000 -6.158737 3.823736 -1.709690 2.266749 -12.820163 -3.098114 -2.063477 -2.263423 -0.106149 15.288627 6.789860 -74.131240 3.554557 -9.705045 0.620374 0.000000 0.000000 0.000000 -4.991072 3.972247 -1.606648 1.072995 3.078976 5.135681 -2.983297 -1.041192 -1.343218 0.608390 8.258768 79.963921 2.690712 21.332185 1.772694 0.000000 0.000000 0.000000 
-0.572088 118.880196 0.124977 0.000000 0.000000 0.000000 -5.818775 -17.276229 -1.791023 -0.853193 21.909918 5.100953 10.516236 5.160280 1.254727 -8.713034 -1.671013 -1.210422 1.561926 0.373488 -0.931522 0.000000 0.000000 0.000000 -6.077755 -14.147660 -1.793955 -7.076741 -9.117996 -9.689143 7.518163 -11.001882 -1.193481 6.451817 -3.007504 6.701691 -4.821390 -0.368677 -0.433060 0.000000 0.000000 0.000000 -5.841940 -17.217175 -2.394328 9.957490 2.227109 1.000101 -4.636484 1.357795 -1.179719 0.843464 0.523398 0.172688 0.000000 0.000000 0.000000 -6.095579 3.732023 -1.535321 5.440351 3.607975 1.151268 1.670936 -6.684449 5.251375 0.000000 0.000000 0.000000 -6.148682 3.791729 -1.761045 2.173478 -12.580705 -3.417786 -2.008283 -2.460215 -0.143398 15.168935 7.002901 -73.312915 3.785165 -9.317761 0.542542 0.000000 0.000000 0.000000 -4.978307 3.941671 -1.689980 1.015425 3.018900 5.478939 -3.158386 -1.068276 -1.359644 0.657531 9.195097 79.497419 3.128179 21.857731 1.901905 0.000000 0.000000 0.000000 
-0.345237 118.404892 -0.360840 0.000000 0.000000 0.000000 -5.556369 -17.180142 -1.831547 -2.171143 21.631680 5.553955 12.214230 4.883041 1.280859 -8.910825 -2.216810 -0.807048 1.481787 0.327020 -0.915269 0.000000 0.000000 0.000000 -6.056503 -13.825622 -1.890017 -7.655648 -9.975677 -9.637949 8.085937 -10.638674 -1.317641 5.520643 -2.897523 7.160678 -4.328585 -0.260352 -0.253858 0.000000 0.000000 0.000000 -5.560871 -17.389774 -2.483682 9.878537 2.150624 1.071663 -4.668326 1.351732 -1.251528 0.985278 0.597607 0.246665 0.000000 0.000000 0.000000 -6.193575 3.718371 -1.601880 5.389899 3.569141 1.026951 1.528660 -6.868140 5.676711 0.000000 0.000000 0.000000 -6.137298 3.769921 -1.787387 2.071642 -12.291077 -3.751326 -1.874414 -2.745986 -0.044177 14.893204 7.015167 -72.426500 4.104922 -8.965889 0.434366 0.000000 0.000000 0.000000 -4.964543 3.910536 -1.751213 0.941521 2.858511 5.911296 -3.412143 -1.042779 -1.374538 0.746753 10.209315 78.753966 3.692884 22.231870 2.115705 0.000000 0.000000 0.000000 
0.013676 117.880112 -0.987560 0.000000 0.000000 0.000000 -5.236872 -17.104552 -1.766420 -3.381181 21.611011 5.801506 13.669007 4.711648 1.238993 -9.199934 -2.703365 -0.174433 1.462606 0.274166 -0.893211 0.000000 0.000000 0.000000 -5.945553 -13.680725 -1.870571 -8.317220 -10.874259 -9.693655 8.405705 -10.182281 -1.481865 4.697345 -2.782755 7.498608 -3.827047 -0.184636 -0.048053 0.000000 0.000000 0.000000 -5.304253 -17.712755 -2.511390 9.933622 2.085605 0.994680 -4.701826 1.375102 -1.286603 1.044744 0.740861 0.331828 0.000000 0.000000 0.000000 -6.265346 3.724378 -1.626396 5.258917 3.550507 0.984145 1.383780 -6.952849 6.109667 0.000000 0.000000 0.000000 -6.131386 3.771727 -1.774664 1.983916 -11.933736 -4.038276 -1.727942 -2.970713 0.145440 14.416195 6.880341 -71.594029 4.344481 -8.799075 0.213758 0.000000 0.000000 0.000000 -4.954813 3.895548 -1.765898 0.847954 2.619747 6.395639 -3.693809 -0.981850 -1.382647 0.890729 11.005145 77.772571 4.339477 22.360733 2.418986 0.000000 0.000000 0.000000 
0.441171 117.387955 -1.598881 0.000000 0.000000 0.000000 -4.969352 -17.305756 -1.609338 -4.246298 21.958899 5.783327 14.607195 4.636285 1.168880 -9.515606 -3.038667 0.541242 1.442213 0.224506 -0.867444 0.000000 0.000000 0.000000 -5.819362 -13.894914 -1.738308 -9.179728 -11.643613 -9.818689 8.439098 -9.626901 -1.639192 4.393791 -2.640025 7.716114 -3.552259 -0.181200 0.125196 0.000000 0.000000 0.000000 -5.189282 -18.166731 -2.459881 10.206295 2.031035 0.693741 -4.745955 1.429015 -1.267130 1.013935 0.853970 0.409112 0.000000 0.000000 0.000000 -6.297692 3.752230 -1.587709 5.035799 3.581916 1.078638 1.245350 -6.883785 6.469780 0.000000 0.000000 0.000000 -6.142165 3.806537 -1.709832 1.910559 -11.506897 -4.237371 -1.582194 -3.151901 0.355051 13.772673 6.705097 -70.887193 4.357565 -8.844039 -0.182609 0.000000 0.000000 0.000000 -4.963860 3.906840 -1.710867 0.731939 2.335688 6.899223 -3.942615 -0.893327 -1.378656 1.053301 11.441952 76.681209 5.016926 22.235981 2.799921 0.000000 0.000000 0.000000 
